<svg width="1200" height="273" viewBox="0 0 1200 273" fill="none" xmlns="http://www.w3.org/2000/svg">
<path d="M461.234 66.4936C468.953 70.4736 474.992 75.38 479.349 81.3157V62.6509H506.249V193.236C506.249 205.038 503.744 215.572 498.769 224.835C493.794 234.099 486.555 241.339 477.154 246.657C467.718 251.94 456.464 254.582 443.358 254.582C425.894 254.582 411.415 250.499 399.853 242.334C388.324 234.168 381.771 223.086 380.227 209.087H406.646C408.67 215.777 412.993 221.164 419.615 225.281C426.237 229.399 434.163 231.457 443.358 231.457C454.097 231.457 462.812 228.198 469.434 221.679C476.056 215.16 479.384 205.656 479.384 193.236V171.792C474.855 177.865 468.747 182.943 461.028 187.06C453.308 191.177 444.559 193.236 434.712 193.236C423.492 193.236 413.234 190.388 403.97 184.727C394.706 179.065 387.364 171.14 381.977 160.95C376.59 150.76 373.914 139.231 373.914 126.331C373.914 113.43 376.59 102.005 381.977 92.0548C387.364 82.1048 394.672 74.385 403.97 68.861C413.234 63.3371 423.492 60.5923 434.712 60.5923C444.696 60.5923 453.548 62.5823 461.234 66.528V66.4936ZM473.86 103.686C470.189 97.167 465.385 92.192 459.484 88.761C453.548 85.33 447.166 83.6144 440.304 83.6144C433.442 83.6144 427.061 85.2956 421.125 88.6237C415.189 91.9518 410.42 96.8582 406.749 103.309C403.078 109.759 401.259 117.41 401.259 126.296C401.259 135.183 403.078 142.937 406.749 149.627C410.42 156.318 415.258 161.396 421.262 164.895C427.266 168.395 433.614 170.145 440.304 170.145C446.995 170.145 453.548 168.429 459.484 164.998C465.419 161.567 470.189 156.558 473.86 149.97C477.531 143.349 479.349 135.629 479.349 126.777C479.349 117.925 477.531 110.205 473.86 103.686Z" fill="#272848"/>
<path d="M569.14 18.562V191.142H542.48V18.562H569.14Z" fill="#272848"/>
<path d="M604.582 92.0211C609.969 82.0711 617.277 74.3513 626.575 68.8274C635.839 63.3034 646.098 60.5586 657.317 60.5586C667.439 60.5586 676.291 62.5486 683.839 66.4943C691.387 70.4742 697.426 75.3806 701.955 81.3163V62.6515H728.854V191.143H701.955V172.033C697.426 178.105 691.284 183.149 683.496 187.198C675.708 191.246 666.821 193.271 656.837 193.271C645.755 193.271 635.633 190.423 626.438 184.762C617.243 179.1 609.969 171.175 604.582 160.985C599.196 150.794 596.52 139.266 596.52 126.366C596.52 113.465 599.196 102.04 604.582 92.0897V92.0211ZM696.465 103.687C692.794 97.1676 687.991 92.1926 682.089 88.7616C676.154 85.3306 669.772 83.6151 662.91 83.6151C656.048 83.6151 649.666 85.2963 643.73 88.6244C637.795 91.9524 633.026 96.8588 629.354 103.309C625.683 109.759 623.865 117.411 623.865 126.297C623.865 135.183 625.683 142.937 629.354 149.628C633.026 156.318 637.863 161.396 643.868 164.896C649.872 168.396 656.219 170.145 662.91 170.145C669.6 170.145 676.154 168.43 682.089 164.999C688.025 161.568 692.794 156.559 696.465 149.971C700.136 143.349 701.955 135.629 701.955 126.777C701.955 117.925 700.136 110.205 696.465 103.687Z" fill="#272848"/>
<path d="M807.287 66.0482C813.737 62.4113 821.422 60.5586 830.309 60.5586V88.0754H823.515C813.085 88.0754 805.159 90.7173 799.773 96.0011C794.386 101.285 791.71 110.446 791.71 123.518V191.143H765.051V62.6515H791.71V81.3163C795.621 74.7973 800.802 69.6851 807.252 66.0482H807.287Z" fill="#272848"/>
<path d="M1061.32 136.796H962.882C963.671 147.055 967.48 155.289 974.342 161.499C981.204 167.709 989.61 170.832 999.594 170.832C1013.94 170.832 1024.06 164.862 1029.99 152.887H1058.74C1054.83 164.69 1047.8 174.4 1037.58 181.914C1027.35 189.462 1014.69 193.236 999.594 193.236C987.277 193.236 976.263 190.491 966.519 184.967C956.775 179.444 949.124 171.689 943.6 161.637C938.076 151.618 935.297 139.987 935.297 126.777C935.297 113.568 937.973 101.937 943.36 91.9181C948.747 81.8996 956.295 74.1454 966.039 68.7244C975.783 63.2691 986.968 60.5586 999.594 60.5586C1012.22 60.5586 1022.58 63.2005 1032.09 68.4843C1041.59 73.768 1049 81.179 1054.28 90.7516C1059.57 100.324 1062.24 111.303 1062.24 123.758C1062.24 128.596 1061.94 132.919 1061.32 136.83V136.796ZM1034.42 115.352C1034.25 105.574 1030.75 97.7166 1023.89 91.7809C1017.02 85.8795 1008.51 82.9289 998.393 82.9289C989.198 82.9289 981.341 85.8452 974.788 91.678C968.235 97.5107 964.358 105.402 963.088 115.352H1034.38H1034.42Z" fill="#272848"/>
<path d="M1140.58 127.017L1199.97 191.142H1163.98L1116.28 135.869V191.142H1089.62V18.562H1116.28V118.851L1163.05 62.6506H1200L1140.61 127.017H1140.58Z" fill="#272848"/>
<path d="M890.523 165.856C888.258 163.764 887.126 160.298 887.126 155.495V30.7085H860.227V62.6513H845.027V84.3354H860.227V155.46C860.227 168.052 863.418 177.145 869.799 182.737C876.181 188.33 885.376 191.143 897.385 191.143H918.417V168.979H902.051C896.596 168.979 892.719 167.915 890.488 165.822L890.523 165.856Z" fill="#272848"/>
<path d="M918.451 62.6519H894.057V84.3359H918.451V62.6519Z" fill="#2470B3"/>
<path d="M214.713 272.287V214.749H57.6069V57.6421L0 57.9509V217.768C0 247.858 24.3946 272.218 54.4503 272.218H214.713V272.287Z" fill="#272848"/>
<path d="M272.08 57.6069H214.542V214.713H57.4355L57.7443 272.32H217.561C247.651 272.32 272.012 247.926 272.012 217.87V57.6069H272.08Z" fill="#2470B3"/>
<path d="M0.0332031 214.714H57.5714V57.6074H214.678L214.369 0.000488281H54.5178C24.4278 0.000488281 0.0332031 24.3951 0.0332031 54.4508V214.714Z" fill="#2470B3"/>
</svg>
